<?xml version="1.0" standalone="no"?>
<!DOCTYPE svg PUBLIC "-//W3C//DTD SVG 20010904//EN"
 "http://www.w3.org/TR/2001/REC-SVG-20010904/DTD/svg10.dtd">
<svg version="1.0" xmlns="http://www.w3.org/2000/svg"
 width="255.000000pt" height="300.000000pt" viewBox="0 0 255.000000 300.000000"
 preserveAspectRatio="xMidYMid meet">

<g transform="translate(0.000000,300.000000) scale(0.100000,-0.100000)"
fill="#000000" stroke="none">
<path d="M0 1500 l0 -1500 1275 0 1275 0 0 1500 0 1500 -1275 0 -1275 0 0
-1500z m1570 980 l0 -80 -60 0 -60 0 0 -580 0 -580 115 0 115 0 -2 438 -3 437
-52 3 -53 3 0 80 0 79 270 0 270 0 0 -80 0 -80 -60 0 -60 0 0 -512 0 -513
-102 -102 -103 -103 -167 0 -168 0 0 -115 0 -115 60 0 60 0 0 -105 0 -105
-290 0 -290 0 0 105 0 105 60 0 60 0 0 115 0 115 -168 0 -167 0 -103 103 -102
102 0 513 0 512 -60 0 -60 0 0 80 0 80 270 0 270 0 0 -79 0 -80 -52 -3 -53 -3
-3 -437 -2 -438 115 0 115 0 0 580 0 580 -60 0 -60 0 0 80 0 80 290 0 290 0 0
-80z"/>
</g>
</svg>
